first trial
nRows=16
nColumns=38

# SIMM Motion File Header:
name Sujet_04_velo_80.mvnx
datacolumns 38
datarows 16
otherdata 1
range 11.6660 11.9160
endheader
time pelvis_tilt  pelvis_list  pelvis_rotation  pelvis_tx  pelvis_ty  pelvis_tz  hip_flexion_r  hip_adduction_r  hip_rotation_r  knee_angle_r  ankle_angle_r  subtalar_angle_r  mtp_angle_r  hip_flexion_l  hip_adduction_l  hip_rotation_l  knee_angle_l  ankle_angle_l  subtalar_angle_l  mtp_angle_l  lumbar_extension  lumbar_bending  lumbar_rotation  arm_flex_r  arm_add_r  arm_rot_r  elbow_flex_r  pro_sup_r  wrist_flex_r  wrist_dev_r  arm_flex_l  arm_add_l  arm_rot_l  elbow_flex_l  pro_sup_l  wrist_flex_l  wrist_dev_l
11.6660	-19.1230	4.4174	-47.1788	0.0000	1.2500	-0.0000	88.0179	-9.9030	11.5574	102.6025	12.4166	3.2700	0.0000	47.1230	-5.0664	-15.6151	48.9160	-4.1342	10.4978	0.0000	-17.8953	0.9788	-1.1132	78.6345	-8.2347	32.4337	29.2535	57.8841	-32.9995	-17.4164	77.5634	6.5742	23.2110	16.2764	62.7748	-26.9517	-21.9425	
11.6830	-19.1336	4.5113	-46.9390	0.0000	1.2500	-0.0000	88.3318	-9.7561	11.4366	100.1562	12.3035	3.1601	-0.0000	47.4221	-4.9857	-15.5627	51.7373	-3.3398	10.5743	0.0000	-17.8949	1.0502	-1.1694	78.6114	-8.2228	32.4722	29.2732	57.9124	-33.0090	-17.4074	77.5603	6.5843	23.1323	16.2866	62.7241	-26.9003	-21.9333	
11.6990	-19.1081	4.6381	-46.6615	0.0000	1.2500	-0.0000	88.1580	-9.6331	11.2735	97.3431	12.1178	3.2457	0.0000	48.0481	-4.8995	-15.4104	55.0482	-2.5519	10.7380	0.0000	-17.8984	1.1111	-1.2393	78.5619	-8.2265	32.4949	29.2867	57.9184	-33.0193	-17.3960	77.5576	6.6164	23.0880	16.2711	62.6800	-26.8475	-21.9292	
11.7160	-19.0351	4.7973	-46.4028	0.0000	1.2500	-0.0000	87.4541	-9.5034	11.0753	94.2148	11.9017	3.6304	-0.0000	48.9990	-4.8241	-15.1367	58.8991	-1.8182	11.0638	0.0000	-17.9074	1.1475	-1.3156	78.4835	-8.2435	32.4878	29.2931	57.9168	-33.0354	-17.3858	77.5533	6.6608	23.0929	16.2322	62.6288	-26.7983	-21.9356	
11.7330	-18.9256	4.9886	-46.1071	0.0000	1.2500	-0.0000	86.2625	-9.3942	10.8305	90.7449	11.6158	4.1937	0.0000	50.2776	-4.7327	-14.7701	63.2462	-1.0898	11.4761	-0.0000	-17.9205	1.1733	-1.4056	78.3788	-8.2761	32.4649	29.2931	57.8929	-33.0521	-17.3732	77.5495	6.7272	23.1320	16.1677	62.5844	-26.7477	-21.9472	
11.7490	-18.7871	5.1756	-45.7368	0.0000	1.2500	-0.0000	84.6554	-9.3636	10.5342	87.0137	11.1638	4.6849	-0.0000	51.7907	-4.6438	-14.3750	67.7415	-0.4867	11.8155	0.0000	-17.9438	1.2006	-1.5058	78.2529	-8.3282	32.4326	29.2865	57.8151	-33.0521	-17.3465	77.5441	6.8095	23.1973	16.0891	62.5741	-26.7117	-21.9490	
11.7660	-18.6147	5.3345	-45.2790	0.0000	1.2500	-0.0000	82.6023	-9.4223	10.1749	82.9518	10.4771	5.0458	0.0000	53.5474	-4.5654	-13.9750	72.3743	-0.1060	12.0152	-0.0000	-17.9802	1.2375	-1.6146	78.1075	-8.4014	32.4005	29.2816	57.6618	-33.0184	-17.2921	77.4995	6.9090	23.3009	16.0075	62.6058	-26.6954	-21.9301	
11.7830	-18.4129	5.4876	-44.7474	0.0000	1.2500	-0.0000	80.1310	-9.5426	9.7406	78.6187	9.6225	5.3581	0.0000	55.5392	-4.4736	-13.5551	77.1545	0.1492	12.1412	-0.0000	-18.0270	1.2762	-1.7335	77.9406	-8.4939	32.3591	29.2694	57.4545	-32.9681	-17.2238	77.4526	7.0246	23.4305	15.9119	62.6717	-26.6937	-21.9014	
11.7990	-18.2040	5.6686	-44.1449	0.0000	1.2500	-0.0000	77.4006	-9.7232	9.2210	74.2681	8.7068	5.5932	0.0000	57.6466	-4.3433	-13.1206	81.7596	0.4488	12.2336	0.0000	-18.0823	1.3048	-1.8643	77.7518	-8.6037	32.2864	29.2225	57.2252	-32.9356	-17.1709	77.5134	7.1463	23.5412	15.7808	62.7760	-26.7060	-21.8805	
11.8160	-17.9919	5.8851	-43.4529	0.0000	1.2500	-0.0000	74.3808	-9.9733	8.5725	69.8900	7.7607	5.7568	0.0000	59.8579	-4.1620	-12.7017	86.1324	0.8085	12.3316	-0.0000	-18.1537	1.3229	-2.0079	77.5604	-8.7229	32.1647	29.1099	56.9867	-32.9267	-17.1390	77.7694	7.2761	23.6078	15.5929	62.9359	-26.7452	-21.8776	
11.8330	-17.7706	6.1280	-42.6911	0.0000	1.2500	-0.0000	71.0975	-10.2558	7.8070	65.4858	6.7502	5.8535	0.0000	62.1840	-3.9348	-12.2852	90.3259	1.2117	12.3968	0.0000	-18.2340	1.3316	-2.1631	77.3462	-8.8585	32.0112	28.9620	56.7255	-32.9357	-17.1229	78.1328	7.4134	23.6560	15.3692	63.1340	-26.7985	-21.8823	
11.8490	-17.5472	6.4065	-41.9189	0.0000	1.2500	-0.0000	67.7962	-10.5159	7.0126	61.3208	5.6860	5.8496	-0.0000	64.5408	-3.6678	-11.8077	94.1771	1.7793	12.3528	0.0000	-18.2992	1.3212	-2.3289	77.0489	-9.0305	31.8561	28.8449	56.4352	-32.9808	-17.1355	78.4511	7.5444	23.7173	15.1513	63.3224	-26.8272	-21.8821	
11.8660	-17.3168	6.7489	-41.1283	0.0000	1.2500	-0.0000	64.4744	-10.7661	6.1572	57.3685	4.5608	5.6642	-0.0000	66.9303	-3.3537	-11.2136	97.6722	2.5536	12.1858	-0.0000	-18.3404	1.2838	-2.5137	76.6166	-9.2499	31.6973	28.7736	56.1107	-33.0864	-17.1929	78.6645	7.6767	23.7868	14.9420	63.4964	-26.8185	-21.8809	
11.8830	-17.0823	7.1265	-40.3282	0.0000	1.2500	-0.0000	61.1349	-10.9907	5.2684	53.6411	3.3823	5.3776	-0.0000	69.3528	-2.9931	-10.5694	100.8194	3.4900	11.9170	0.0000	-18.3673	1.2263	-2.7092	76.0992	-9.5018	31.5348	28.7324	55.7565	-33.2287	-17.2799	78.8328	7.8019	23.8691	14.7382	63.6608	-26.7853	-21.8751	
11.8990	-16.8656	7.4625	-39.6023	0.0000	1.2500	-0.0000	58.0343	-11.1320	4.5573	50.4600	2.1833	5.2008	-0.0000	71.7211	-2.6126	-9.9813	103.4888	4.5788	11.5221	0.0000	-18.3841	1.1607	-2.8883	75.5902	-9.7686	31.4031	28.7411	55.3814	-33.3525	-17.3619	78.9821	7.8812	24.0095	14.5737	63.7825	-26.7278	-21.8405	
11.9160	-16.6693	7.7372	-38.9575	0.0000	1.2500	-0.0000	55.2237	-11.2207	4.1823	47.8916	0.8514	5.2547	0.0000	74.0388	-2.2047	-9.4201	105.6615	5.9204	10.9246	-0.0000	-18.3918	1.0898	-3.0468	75.0951	-10.0736	31.3285	28.8337	54.9494	-33.4369	-17.4268	79.1345	7.8809	24.2555	14.4740	63.8281	-26.6312	-21.7634	
